<svg xmlns="http://www.w3.org/2000/svg" xmlns:xlink="http://www.w3.org/1999/xlink" width="1080" zoomAndPan="magnify" viewBox="0 0 810 809.999993" height="1080" preserveAspectRatio="xMidYMid meet" version="1.0"><defs><clipPath id="7871ffcb4e"><path d="M 38.144531 38.144531 L 771.644531 38.144531 L 771.644531 771.644531 L 38.144531 771.644531 Z M 38.144531 38.144531 " clip-rule="nonzero"/></clipPath></defs><g clip-path="url(#7871ffcb4e)"><path fill="#8355e9" d="M 203.195312 38.144531 L 606.363281 38.144531 C 651.925781 38.144531 693.1875 56.628906 723.273438 86.714844 C 752.933594 116.371094 771.84375 158.066406 771.84375 203.195312 L 771.84375 606.363281 C 771.84375 651.925781 752.933594 693.1875 723.273438 723.273438 C 693.1875 752.933594 651.925781 771.84375 606.363281 771.84375 L 203.195312 771.84375 C 158.066406 771.84375 116.371094 752.933594 86.714844 723.273438 C 56.628906 693.1875 38.144531 651.925781 38.144531 606.363281 L 38.144531 203.195312 C 38.144531 158.066406 56.628906 116.371094 86.714844 86.714844 C 116.371094 56.628906 158.066406 38.144531 203.195312 38.144531 Z M 606.363281 103.476562 L 203.195312 103.476562 C 175.6875 103.476562 150.757812 114.652344 132.707031 132.707031 C 114.652344 150.757812 103.476562 175.6875 103.476562 203.195312 L 103.476562 606.363281 C 103.476562 633.871094 114.652344 658.800781 132.707031 676.855469 C 150.757812 695.335938 175.6875 706.511719 203.195312 706.511719 L 606.363281 706.511719 C 633.871094 706.511719 658.800781 695.335938 676.855469 676.855469 C 695.335938 658.800781 706.511719 633.871094 706.511719 606.363281 L 706.511719 203.195312 C 706.511719 175.6875 695.335938 150.757812 676.855469 132.707031 C 658.800781 114.652344 633.871094 103.476562 606.363281 103.476562 Z M 606.363281 103.476562 " fill-opacity="1" fill-rule="nonzero"/></g><path fill="#8355e9" d="M 610.664062 166.230469 C 619.6875 166.230469 628.285156 169.667969 633.871094 175.6875 C 639.890625 181.703125 643.757812 189.871094 643.757812 198.898438 C 643.757812 207.921875 639.890625 216.519531 633.871094 222.109375 C 628.285156 228.125 619.6875 231.992188 610.664062 231.992188 C 601.636719 231.992188 593.46875 228.125 587.453125 222.109375 C 581.433594 216.519531 577.996094 207.921875 577.996094 198.898438 C 577.996094 189.871094 581.433594 181.703125 587.453125 175.6875 C 593.46875 169.667969 601.636719 166.230469 610.664062 166.230469 Z M 610.664062 166.230469 " fill-opacity="1" fill-rule="nonzero"/><path fill="#8355e9" d="M 404.78125 226.835938 C 454.210938 226.835938 498.480469 247.035156 530.714844 278.84375 C 562.953125 311.078125 583.15625 355.78125 583.15625 404.78125 C 583.15625 454.210938 562.953125 498.480469 530.714844 530.714844 C 498.480469 562.953125 454.210938 583.15625 404.78125 583.15625 C 355.78125 583.15625 311.078125 562.953125 278.84375 530.714844 C 247.035156 498.480469 226.835938 454.210938 226.835938 404.78125 C 226.835938 355.78125 247.035156 311.078125 278.84375 278.84375 C 311.078125 247.035156 355.78125 226.835938 404.78125 226.835938 Z M 484.296875 325.695312 C 464.09375 305.492188 435.726562 292.597656 404.78125 292.597656 C 373.832031 292.597656 345.894531 305.492188 325.695312 325.695312 C 305.492188 345.894531 292.597656 373.832031 292.597656 404.78125 C 292.597656 435.726562 305.492188 464.09375 325.695312 484.296875 C 345.894531 504.496094 373.832031 516.960938 404.78125 516.960938 C 435.726562 516.960938 464.09375 504.496094 484.296875 484.296875 C 504.496094 464.09375 516.960938 435.726562 516.960938 404.78125 C 516.960938 373.832031 504.496094 345.894531 484.296875 325.695312 Z M 484.296875 325.695312 " fill-opacity="1" fill-rule="nonzero"/></svg>